# Blender v2.80 (sub 60) OBJ File: 'brique1.blend'
# www.blender.org
mtllib brique1_LowPoly.mtl
o Cube
v -0.683026 0.048316 0.104618
v 1.051108 -0.044929 -0.769162
v -1.043086 0.110509 -0.117639
v 0.992155 0.555610 -0.987247
v 0.840968 0.048528 -0.994098
v 1.091027 0.148489 -0.627569
v 0.732478 0.481188 0.842716
v -1.007988 0.118079 -0.605203
v -1.002994 0.272507 -0.822370
v 0.705377 0.531703 1.000238
v -1.008000 -0.930638 0.685338
v 0.307027 -1.215654 0.275495
v 0.477048 -1.076074 0.774892
v -0.537094 -0.977402 0.894980
v 0.458956 -1.122667 0.115864
v 0.948183 -1.007616 0.617462
v 0.994545 -0.993894 -0.542791
v 1.048466 -0.703729 0.727484
v 1.043337 0.104550 0.913691
v 0.967428 -0.971496 -0.945590
v 1.000214 0.284053 -0.956023
v 0.917758 0.114594 -0.595423
v 0.060052 0.827047 0.979573
v 0.942536 0.639800 1.009596
v 0.790485 -0.798290 0.984658
v -0.926979 0.071664 -0.987391
v -0.131597 -1.159267 -0.203549
v 0.951088 0.991014 0.931168
v -1.015366 0.532283 -0.983867
v -0.964054 0.990753 -0.705602
v -0.963146 0.998623 0.010023
v -1.034133 0.235150 0.065183
v -1.050061 0.652570 0.015001
v -1.042906 0.021478 0.137582
v -1.048931 -0.059650 -0.002522
v -1.027726 -0.968970 -0.547723
v -0.982494 -0.623120 0.960952
v -0.958073 0.891774 0.151385
v -0.982537 0.638556 0.986814
v -0.692307 0.972541 -0.996201
v -0.948503 -0.966892 -1.001653
v -0.954947 0.949703 0.945704
v 0.709990 0.982476 -0.973717
v 0.985435 0.992834 -0.631658
v -0.149483 1.020415 0.806394
v 0.894681 -0.214105 0.994329
v -0.750248 0.462019 -1.020593
v 0.601446 0.054269 1.060377
v -0.251242 1.099573 -0.309260
vt 0.994654 0.233020
vt 0.896697 0.222076
vt 0.990039 0.120679
vt 0.145094 0.407928
vt 0.139122 0.384737
vt 0.166290 0.404111
vt 0.561960 0.379512
vt 0.540219 0.354888
vt 0.579996 0.371425
vt 0.759736 0.341382
vt 0.796860 0.293678
vt 0.792288 0.315540
vt 0.567032 0.402606
vt 0.524571 0.391833
vt 0.146221 0.325883
vt 0.150007 0.429880
vt 0.230584 0.557848
vt 0.279402 0.341628
vt 0.311471 0.353037
vt 0.264501 0.378227
vt 0.761153 0.242734
vt 0.750318 0.052067
vt 0.902064 0.086143
vt 0.254669 0.277860
vt 0.314525 0.281351
vt 0.782440 0.009124
vt 0.952241 0.000085
vt 0.873357 0.255411
vt 0.817128 0.345605
vt 0.784141 0.378494
vt 0.936594 0.474270
vt 0.999915 0.437115
vt 0.998563 0.497542
vt 0.236182 0.404068
vt 0.290334 0.407886
vt 0.048813 0.556736
vt 0.128392 0.416791
vt 0.000085 0.325611
vt 0.006344 0.277969
vt 0.148088 0.270576
vt 0.125745 0.286837
vt 0.011013 0.516900
vt 0.986470 0.034182
vt 0.296978 0.554272
vt 0.764569 0.479999
vt 0.799930 0.439575
vt 0.825953 0.480375
vt 0.760037 0.437763
vt 0.815065 0.555998
vt 0.838982 0.540254
vt 0.533783 0.326790
vt 0.987359 0.661163
vt 0.770838 0.282698
vt 0.881199 0.603690
vt 0.969736 0.716574
vt 0.730550 0.677892
vt 0.504727 0.273735
vt 0.566356 0.523633
vt 0.734923 0.627691
vt 0.612835 0.518007
vt 0.562986 0.267566
vt 0.999915 0.270214
vn -0.5556 0.6079 0.5672
vn -0.0078 0.9178 0.3970
vn -0.6788 0.7324 0.0522
vn -0.9734 0.0860 -0.2124
vn -0.9371 -0.2866 -0.1993
vn -0.9741 -0.0401 0.2226
vn 0.5363 -0.0456 -0.8428
vn 0.7599 -0.2559 -0.5975
vn 0.9232 -0.0964 -0.3721
vn 0.7956 0.0551 0.6033
vn 0.0860 -0.1659 0.9824
vn 0.1176 -0.5993 0.7918
vn 0.8364 0.2841 -0.4687
vn 0.4522 -0.0226 -0.8916
vn -0.9915 0.1299 0.0070
vn -0.9510 0.2837 0.1225
vn -0.7834 -0.6182 -0.0643
vn -0.7243 -0.0544 -0.6873
vn -0.1474 -0.0279 -0.9886
vn -0.9241 -0.1177 -0.3636
vn 0.5585 0.6401 0.5275
vn 0.6903 0.7051 -0.1619
vn -0.0290 0.9989 -0.0368
vn -0.6901 0.6932 -0.2080
vn -0.1985 0.6492 -0.7342
vn 0.2272 0.6689 -0.7077
vn -0.0199 0.3529 0.9354
vn 0.1293 0.0574 0.9899
vn 0.4636 -0.0663 0.8835
vn -0.1428 -0.7207 0.6784
vn -0.6586 -0.1818 0.7302
vn -0.7279 -0.6293 0.2723
vn -0.9935 -0.0358 -0.1077
vn -0.6989 0.0340 -0.7144
vn -0.9160 0.1585 -0.3686
vn -0.6819 0.0693 0.7281
vn -0.9821 0.1805 0.0541
vn -0.5458 -0.5355 -0.6445
vn 0.6259 -0.7394 0.2479
vn 0.3565 -0.3912 0.8484
vn 0.1194 -0.8708 0.4770
vn 0.9232 -0.2021 0.3269
vn 0.2415 -0.9673 -0.0772
vn 0.1820 -0.9832 0.0133
vn 0.6551 0.1345 -0.7435
vn 0.4692 0.0569 0.8813
vn -0.0869 -0.9946 -0.0556
vn 0.5629 -0.5556 -0.6119
vn 0.7400 -0.6707 -0.0500
usemtl Material
s 1
f 42/1/1 45/2/2 31/3/3
f 1/4/4 32/5/5 3/6/6
f 22/7/7 21/8/8 6/9/9
f 19/10/10 10/11/11 7/12/12
f 22/7/7 2/13/13 5/14/14
f 32/5/5 33/15/15 3/6/6
f 35/16/16 3/6/6 36/17/17
f 29/18/18 47/19/19 9/20/20
f 28/21/21 44/22/22 49/23/23
f 30/24/24 40/25/25 29/18/18
f 43/26/26 49/23/23 44/22/22
f 43/26/26 40/27/25 49/23/23
f 45/2/2 42/1/1 23/28/27
f 49/23/23 45/2/2 28/21/21
f 19/10/10 48/29/28 46/30/29
f 35/16/16 1/4/4 3/6/6
f 14/31/30 37/32/31 11/33/32
f 8/34/33 33/15/15 29/18/18
f 26/35/34 8/34/33 9/20/20
f 5/14/14 21/8/8 22/7/7
f 7/12/12 10/11/11 48/29/28
f 36/17/17 8/34/33 26/35/34
f 11/36/32 34/37/35 36/17/17
f 33/15/15 34/37/35 39/38/36
f 42/39/1 31/40/3 38/41/37
f 37/42/31 39/38/36 34/37/35
f 39/38/36 42/39/1 33/15/15
f 40/27/25 30/43/24 49/23/23
f 42/39/1 38/41/37 33/15/15
f 33/15/15 32/5/5 34/37/35
f 31/40/3 33/15/15 38/41/37
f 34/37/35 11/36/32 37/42/31
f 34/37/35 35/16/16 36/17/17
f 2/13/13 22/7/7 6/9/9
f 35/16/16 34/37/35 1/4/4
f 34/37/35 32/5/5 1/4/4
f 33/15/15 31/40/3 29/18/18
f 49/23/23 30/43/24 31/3/3
f 47/19/19 26/35/34 9/20/20
f 8/34/33 3/6/6 33/15/15
f 49/23/23 31/3/3 45/2/2
f 19/10/10 7/12/12 48/29/28
f 26/35/34 47/19/19 41/44/38
f 3/6/6 8/34/33 36/17/17
f 29/18/18 9/20/20 8/34/33
f 16/45/39 25/46/40 13/47/41
f 25/46/40 18/48/42 46/30/29
f 37/32/31 14/31/30 25/46/40
f 14/31/30 13/47/41 25/46/40
f 13/47/41 15/49/43 16/45/39
f 12/50/44 15/49/43 13/47/41
f 12/50/44 13/47/41 14/31/30
f 41/44/38 36/17/17 26/35/34
f 5/14/14 4/51/45 21/8/8
f 36/52/17 12/50/44 11/33/32
f 19/10/10 28/21/21 24/53/46
f 27/54/47 15/49/43 12/50/44
f 11/33/32 12/50/44 14/31/30
f 41/55/38 20/56/48 27/54/47
f 15/49/43 27/54/47 20/56/48
f 27/54/47 36/52/17 41/55/38
f 24/53/46 10/11/11 19/10/10
f 36/52/17 27/54/47 12/50/44
f 24/53/46 28/21/21 23/28/27
f 45/2/2 23/28/27 28/21/21
f 4/51/45 40/25/25 43/57/26
f 20/58/48 2/13/13 6/9/9
f 47/19/19 5/14/14 41/44/38
f 18/48/42 25/46/40 16/45/39
f 15/49/43 17/59/49 16/45/39
f 20/56/48 17/59/49 15/49/43
f 20/58/48 5/14/14 2/13/13
f 5/14/14 20/58/48 41/44/38
f 18/48/42 16/45/39 17/60/49
f 6/9/9 19/10/10 17/60/49
f 19/10/10 46/30/29 18/48/42
f 17/60/49 19/10/10 18/48/42
f 20/58/48 6/9/9 17/60/49
f 28/21/21 6/9/9 44/61/22
f 43/57/26 44/61/22 4/51/45
f 4/51/45 44/61/22 6/9/9
f 28/21/21 19/10/10 6/9/9
f 21/8/8 4/51/45 6/9/9
f 29/18/18 31/40/3 30/24/24
f 48/29/28 39/62/36 25/46/40
f 24/53/46 23/28/27 10/11/11
f 10/11/11 39/62/36 48/29/28
f 46/30/29 48/29/28 25/46/40
f 29/18/18 40/25/25 47/19/19
f 23/28/27 39/62/36 10/11/11
f 47/19/19 4/51/45 5/14/14
f 25/46/40 39/62/36 37/32/31
f 40/25/25 4/51/45 47/19/19
f 42/1/1 39/62/36 23/28/27
