# Blender v2.80 (sub 60) OBJ File: 'vale01.blend'
# www.blender.org
mtllib vale01.mtl
o Sphere
v 0.000000 -0.874533 -0.220091
v 0.137950 0.980785 -0.137950
v 0.270598 0.923880 -0.270598
v 0.392848 0.831470 -0.392847
v 0.500000 0.707107 -0.500000
v 0.587938 0.555570 -0.587938
v 0.653282 0.382683 -0.653281
v 0.693520 0.195090 -0.693520
v 0.707107 0.000000 -0.707107
v 0.693520 -0.195090 -0.693520
v 0.653282 -0.382683 -0.653281
v 0.587938 -0.555570 -0.587938
v 0.500000 -0.707107 -0.500000
v 0.392848 -0.831470 -0.392847
v 0.270598 -0.861378 -0.283098
v 0.137950 -0.874533 -0.162950
v 0.195091 0.980785 0.000000
v 0.382684 0.923880 0.000000
v 0.555571 0.831470 0.000000
v 0.707107 0.707107 0.000000
v 0.831470 0.555570 0.000000
v 0.923880 0.382683 0.000000
v 0.980786 0.195090 0.000000
v 1.000000 0.000000 0.000000
v 0.980786 -0.195090 0.000000
v 0.923880 -0.382683 0.000000
v 0.831470 -0.555570 0.000000
v 0.707107 -0.707107 0.000000
v 0.555571 -0.831470 0.000000
v 0.382684 -0.861378 -0.012500
v 0.195090 -0.874533 -0.025000
v 0.137950 0.980785 0.137950
v 0.270598 0.923880 0.270599
v 0.392848 0.831470 0.392848
v 0.500000 0.707107 0.500001
v 0.587938 0.555570 0.587938
v 0.653282 0.382683 0.653282
v 0.693520 0.195090 0.693520
v 0.707107 0.000000 0.707107
v 0.693520 -0.195090 0.693520
v 0.653282 -0.382683 0.653282
v 0.587938 -0.555570 0.587938
v 0.500000 -0.707107 0.500001
v 0.392848 -0.831470 0.392848
v 0.270598 -0.861378 0.258098
v 0.137950 -0.874533 0.112950
v 0.000000 0.980785 0.195091
v -0.000000 0.923880 0.382684
v 0.000000 0.831470 0.555571
v -0.000000 0.707107 0.707107
v -0.000000 0.555570 0.831470
v -0.000000 0.382683 0.923880
v -0.000000 0.195090 0.980786
v -0.000000 0.000000 1.000001
v -0.000000 -0.195090 0.980786
v -0.000000 -0.382683 0.923880
v -0.000000 -0.555570 0.831470
v -0.000000 -0.707107 0.707107
v 0.000000 -0.831470 0.555571
v 0.000000 -0.861378 0.370184
v 0.000000 -0.874533 0.170090
v 0.000000 -0.843747 -0.037500
v 0.246179 1.215171 0.000000
v -0.137950 0.980785 0.137950
v -0.270598 0.923880 0.270599
v -0.392848 0.831470 0.392848
v -0.500000 0.707107 0.500001
v -0.587938 0.555570 0.587938
v -0.653282 0.382683 0.653282
v -0.693520 0.195090 0.693520
v -0.707107 0.000000 0.707107
v -0.693520 -0.195090 0.693520
v -0.653282 -0.382683 0.653282
v -0.587938 -0.555570 0.587938
v -0.500000 -0.707107 0.500001
v -0.392848 -0.831470 0.392848
v -0.270598 -0.861378 0.258098
v -0.137950 -0.874533 0.112950
v -0.195091 0.980785 0.000000
v -0.382684 0.923880 0.000000
v -0.555571 0.831470 0.000000
v -0.707107 0.707107 0.000000
v -0.831470 0.555570 0.000000
v -0.923880 0.382683 0.000000
v -0.980786 0.195090 0.000000
v -1.000000 0.000000 0.000000
v -0.980786 -0.195090 0.000000
v -0.923880 -0.382683 0.000000
v -0.831470 -0.555570 0.000000
v -0.707107 -0.707107 0.000000
v -0.555570 -0.831470 0.000000
v -0.382684 -0.861378 -0.012500
v -0.195090 -0.874533 -0.025000
v -0.137950 0.980785 -0.137950
v -0.270598 0.923880 -0.270598
v -0.392848 0.831470 -0.392847
v -0.500000 0.707107 -0.500000
v -0.587938 0.555570 -0.587938
v -0.653282 0.382683 -0.653281
v -0.693520 0.195090 -0.693520
v -0.707107 0.000000 -0.707107
v -0.693520 -0.195090 -0.693520
v -0.653282 -0.382683 -0.653281
v -0.587938 -0.555570 -0.587938
v -0.500000 -0.707107 -0.500000
v -0.392848 -0.831470 -0.392847
v -0.270598 -0.861378 -0.283098
v -0.137950 -0.874533 -0.162950
v 0.000000 0.980785 -0.195090
v -0.000000 0.923880 -0.382683
v -0.000000 0.831470 -0.555570
v -0.000000 0.707107 -0.707107
v -0.000000 0.555570 -0.831470
v -0.000000 0.382683 -0.923880
v -0.000000 0.195090 -0.980785
v -0.000000 0.000000 -1.000000
v -0.000000 -0.195090 -0.980785
v -0.000000 -0.382683 -0.923880
v -0.000000 -0.555570 -0.831470
v -0.000000 -0.707107 -0.707107
v -0.000000 -0.831470 -0.555570
v -0.000000 -0.861378 -0.395183
v 0.195091 1.161162 0.000000
v 0.137950 1.161162 -0.137950
v 0.137950 1.161162 0.137950
v -0.000000 1.161162 0.195091
v 0.246179 1.348559 0.000000
v -0.137950 1.161162 0.137950
v -0.195091 1.161162 0.000000
v -0.137950 1.161162 -0.137950
v -0.000000 1.161162 -0.195090
v 0.174075 1.215171 -0.174074
v 0.174075 1.215171 0.174075
v 0.000000 1.215171 0.246179
v 0.212761 1.410780 0.000000
v -0.174075 1.215171 0.174075
v -0.246179 1.215171 0.000000
v -0.174075 1.215171 -0.174074
v 0.000000 1.215171 -0.246179
v 0.174075 1.348559 -0.174074
v 0.174075 1.348559 0.174075
v -0.000000 1.348559 0.246179
v -0.174075 1.348559 0.174075
v -0.246179 1.348559 0.000000
v -0.174075 1.348559 -0.174074
v -0.000000 1.348559 -0.246179
v 0.150445 1.410780 -0.150444
v 0.150445 1.410780 0.150445
v -0.000000 1.410780 0.212761
v -0.000000 1.403378 0.000001
v -0.150445 1.410780 0.150445
v -0.212761 1.410780 0.000000
v -0.150445 1.410780 -0.150444
v -0.000000 1.410780 -0.212760
vt 0.750000 0.187500
vt 0.750000 0.250000
vt 0.625000 0.250000
vt 0.625000 0.187500
vt 0.750000 0.625000
vt 0.750000 0.687500
vt 0.625000 0.687500
vt 0.625000 0.625000
vt 0.750000 0.125000
vt 0.625000 0.125000
vt 0.750000 0.562500
vt 0.625000 0.562500
vt 0.750000 0.062500
vt 0.625000 0.062500
vt 0.750000 0.500000
vt 0.625000 0.500000
vt 1.000000 0.062500
vt 0.875000 0.062500
vt 0.062500 0.000000
vt 0.125000 0.062500
vt 0.750000 0.437500
vt 0.625000 0.437500
vt 0.750000 0.875000
vt 0.750000 0.937500
vt 0.625000 0.937500
vt 0.625000 0.875000
vt 0.750000 0.375000
vt 0.625000 0.375000
vt 0.750000 0.812500
vt 0.625000 0.812500
vt 0.750000 0.312500
vt 0.625000 0.312500
vt 0.750000 0.750000
vt 0.625000 0.750000
vt 0.500000 0.312500
vt 0.500000 0.250000
vt 0.500000 0.750000
vt 0.500000 0.687500
vt 0.500000 0.187500
vt 0.500000 0.625000
vt 0.500000 0.125000
vt 0.500000 0.562500
vt 0.500000 0.062500
vt 0.500000 0.500000
vt 0.875000 0.937500
vt 0.875000 0.937500
vt 0.750000 0.937500
vt 0.250000 0.062500
vt 0.312500 0.000000
vt 0.375000 0.062500
vt 0.500000 0.437500
vt 0.500000 0.937500
vt 0.500000 0.875000
vt 0.500000 0.375000
vt 0.500000 0.812500
vt 0.375000 0.500000
vt 0.375000 0.437500
vt 0.375000 0.937500
vt 0.375000 0.875000
vt 0.375000 0.375000
vt 0.375000 0.812500
vt 0.375000 0.312500
vt 0.375000 0.750000
vt 0.375000 0.250000
vt 0.375000 0.687500
vt 0.375000 0.187500
vt 0.375000 0.625000
vt 0.375000 0.125000
vt 0.375000 0.562500
vt 0.250000 0.750000
vt 0.250000 0.687500
vt 0.250000 0.250000
vt 0.250000 0.187500
vt 0.250000 0.625000
vt 0.250000 0.125000
vt 0.250000 0.562500
vt 0.250000 0.500000
vt 0.625000 0.937500
vt 0.500000 0.937500
vt 0.812500 0.000000
vt 0.250000 0.437500
vt 0.250000 0.937500
vt 0.250000 0.875000
vt 0.250000 0.375000
vt 0.250000 0.812500
vt 0.250000 0.312500
vt 0.125000 0.500000
vt 0.125000 0.437500
vt 0.125000 0.937500
vt 0.125000 0.875000
vt 0.125000 0.375000
vt 0.125000 0.812500
vt 0.125000 0.312500
vt 0.125000 0.750000
vt 0.125000 0.250000
vt 0.125000 0.687500
vt 0.125000 0.187500
vt 0.125000 0.625000
vt 0.125000 0.125000
vt 0.125000 0.562500
vt 0.000000 0.250000
vt 0.000000 0.187500
vt 0.000000 0.687500
vt 0.000000 0.625000
vt 0.000000 0.125000
vt 0.000000 0.562500
vt 0.000000 0.062500
vt 0.000000 0.500000
vt 0.375000 0.937500
vt 0.250000 0.937500
vt 0.562500 0.000000
vt 0.000000 0.437500
vt 0.000000 0.937500
vt 0.000000 0.875000
vt 0.000000 0.375000
vt 0.000000 0.812500
vt 0.000000 0.312500
vt 0.000000 0.750000
vt 1.000000 0.875000
vt 1.000000 0.937500
vt 0.875000 0.875000
vt 1.000000 0.375000
vt 1.000000 0.437500
vt 0.875000 0.437500
vt 0.875000 0.375000
vt 1.000000 0.812500
vt 0.875000 0.812500
vt 1.000000 0.312500
vt 0.875000 0.312500
vt 1.000000 0.750000
vt 0.875000 0.750000
vt 1.000000 0.250000
vt 0.875000 0.250000
vt 1.000000 0.687500
vt 0.875000 0.687500
vt 1.000000 0.187500
vt 0.875000 0.187500
vt 1.000000 0.625000
vt 0.875000 0.625000
vt 1.000000 0.125000
vt 0.875000 0.125000
vt 1.000000 0.562500
vt 0.875000 0.562500
vt 1.000000 0.500000
vt 0.875000 0.500000
vt 0.125000 0.937500
vt 0.375000 0.937500
vt 0.250000 0.937500
vt 0.125000 0.937500
vt 1.000000 0.937500
vt 1.000000 0.937500
vt 0.875000 0.937500
vt 0.500000 0.937500
vt 0.000000 0.937500
vt 0.500000 0.937500
vt 0.375000 0.937500
vt 0.000000 0.937500
vt 0.125000 0.937500
vt 0.000000 0.937500
vt 0.750000 0.937500
vt 0.875000 0.937500
vt 0.750000 0.937500
vt 0.625000 0.937500
vt 0.625000 0.937500
vt 0.750000 0.937500
vt 0.625000 0.937500
vt 0.500000 0.937500
vt 0.250000 0.937500
vt 0.375000 0.937500
vt 0.250000 0.937500
vt 0.125000 0.937500
vt 1.000000 0.937500
vt 0.187500 1.000000
vt 0.875000 0.937500
vt 0.687500 1.000000
vt 0.437499 1.000000
vt 0.937500 1.000000
vt 0.000000 0.937500
vt 1.000000 0.937500
vn 0.0000 -0.8825 -0.4703
vn 0.0000 -0.6952 -0.7188
vn 0.5083 -0.6952 -0.5083
vn 0.3321 -0.8832 -0.3311
vn 0.0000 0.3745 -0.9272
vn 0.0000 0.5447 -0.8386
vn 0.5930 0.5447 -0.5930
vn 0.6556 0.3745 -0.6556
vn 0.0000 -0.9897 -0.1427
vn 0.0974 -0.9902 -0.1002
vn 0.0000 0.1906 -0.9816
vn 0.6941 0.1906 -0.6941
vn 0.0000 -0.9998 0.0157
vn 0.0013 -1.0000 -0.0030
vn 0.0000 0.0000 -1.0000
vn 0.7071 0.0000 -0.7071
vn 0.0148 -0.9999 -0.0011
vn -0.0013 -1.0000 -0.0030
vn 0.0000 -0.9999 0.0094
vn -0.0017 -1.0000 0.0004
vn 0.0000 -0.1906 -0.9816
vn 0.6941 -0.1906 -0.6941
vn 0.0000 0.9151 -0.4031
vn 0.0000 0.6766 -0.7364
vn 0.5207 0.6766 -0.5207
vn 0.2850 0.9151 -0.2850
vn 0.0000 -0.3745 -0.9272
vn 0.6556 -0.3745 -0.6556
vn 0.0000 0.8203 -0.5719
vn 0.4044 0.8203 -0.4044
vn 0.0000 -0.5447 -0.8386
vn 0.5930 -0.5447 -0.5930
vn 0.0000 0.6952 -0.7188
vn 0.5083 0.6952 -0.5083
vn 0.8386 -0.5447 0.0000
vn 0.7188 -0.6952 0.0000
vn 0.7188 0.6952 0.0000
vn 0.8386 0.5447 0.0000
vn 0.4658 -0.8849 0.0009
vn 0.9272 0.3745 0.0000
vn 0.1330 -0.9911 -0.0025
vn 0.9816 0.1906 0.0000
vn -0.0148 -0.9999 -0.0011
vn 1.0000 0.0000 0.0000
vn -0.5207 0.6766 -0.5207
vn -0.6465 -0.4050 -0.6465
vn 0.0000 -0.4050 -0.9143
vn 0.0000 -0.9999 -0.0141
vn 0.0017 -1.0000 0.0004
vn 0.9816 -0.1906 0.0000
vn 0.7364 0.6766 0.0000
vn 0.4031 0.9151 0.0000
vn 0.9272 -0.3745 0.0000
vn 0.5719 0.8203 0.0000
vn 0.7071 0.0000 0.7071
vn 0.6941 -0.1906 0.6941
vn 0.5207 0.6766 0.5207
vn 0.2850 0.9151 0.2850
vn 0.6556 -0.3745 0.6556
vn 0.4044 0.8203 0.4044
vn 0.5930 -0.5447 0.5930
vn 0.5083 0.6952 0.5083
vn 0.5083 -0.6952 0.5083
vn 0.5930 0.5447 0.5930
vn 0.3270 -0.8863 0.3278
vn 0.6556 0.3745 0.6556
vn 0.0907 -0.9919 0.0884
vn 0.6941 0.1906 0.6941
vn 0.0000 0.6952 0.7188
vn 0.0000 0.5447 0.8386
vn 0.0000 -0.6952 0.7188
vn 0.0000 -0.8868 0.4620
vn 0.0000 0.3745 0.9272
vn 0.0000 -0.9922 0.1241
vn 0.0000 0.1906 0.9816
vn 0.0000 0.0000 1.0000
vn 0.6465 -0.4050 -0.6465
vn 0.9143 -0.4050 0.0000
vn 0.0000 -0.1906 0.9816
vn 0.0000 0.6766 0.7364
vn 0.0000 0.9151 0.4031
vn 0.0000 -0.3745 0.9272
vn 0.0000 0.8203 0.5719
vn 0.0000 -0.5447 0.8386
vn -0.7071 0.0000 0.7071
vn -0.6941 -0.1906 0.6941
vn -0.5207 0.6766 0.5207
vn -0.2850 0.9151 0.2850
vn -0.6556 -0.3745 0.6556
vn -0.4044 0.8203 0.4044
vn -0.5930 -0.5447 0.5930
vn -0.5083 0.6952 0.5083
vn -0.5083 -0.6952 0.5083
vn -0.5930 0.5447 0.5930
vn -0.3270 -0.8863 0.3278
vn -0.6556 0.3745 0.6556
vn -0.0907 -0.9919 0.0884
vn -0.6941 0.1906 0.6941
vn -0.7188 -0.6952 0.0000
vn -0.4658 -0.8849 0.0009
vn -0.8386 0.5447 0.0000
vn -0.9272 0.3745 0.0000
vn -0.1330 -0.9911 -0.0025
vn -0.9816 0.1906 0.0000
vn -1.0000 0.0000 0.0000
vn 0.6465 -0.4050 0.6465
vn 0.0000 -0.4050 0.9143
vn -0.9816 -0.1906 0.0000
vn -0.7364 0.6766 0.0000
vn -0.4031 0.9151 0.0000
vn -0.9272 -0.3745 0.0000
vn -0.5719 0.8203 0.0000
vn -0.8386 -0.5447 0.0000
vn -0.7188 0.6952 0.0000
vn -0.2850 0.9151 -0.2850
vn -0.6941 -0.1906 -0.6941
vn -0.6556 -0.3745 -0.6556
vn -0.4044 0.8203 -0.4044
vn -0.5930 -0.5447 -0.5930
vn -0.5083 0.6952 -0.5083
vn -0.5083 -0.6952 -0.5083
vn -0.5930 0.5447 -0.5930
vn -0.3321 -0.8832 -0.3311
vn -0.6556 0.3745 -0.6556
vn -0.0974 -0.9902 -0.1002
vn -0.6941 0.1906 -0.6941
vn -0.7071 0.0000 -0.7071
vn -0.6465 -0.4050 0.6465
vn 0.6644 -0.3420 0.6644
vn 0.0000 -0.3420 0.9397
vn -0.6644 -0.3420 0.6644
vn -0.9143 -0.4050 0.0000
vn -0.9397 -0.3420 0.0000
vn -0.6644 -0.3420 -0.6644
vn 0.9397 -0.3420 0.0000
vn 0.9730 0.2309 0.0000
vn 0.6880 0.2309 0.6880
vn -0.6880 0.2309 0.6880
vn -0.9730 0.2309 0.0000
vn 0.0000 -0.3420 -0.9397
vn -0.6880 0.2309 -0.6880
vn 0.0000 0.2309 -0.9730
vn 0.6644 -0.3420 -0.6644
vn 0.6880 0.2309 -0.6880
vn 0.0000 0.8113 -0.5846
vn 0.4156 0.8090 -0.4156
vn 0.5846 0.8113 0.0000
vn 0.0000 0.2309 0.9730
vn 0.4156 0.8090 0.4156
vn 0.0000 0.8113 0.5846
vn -0.4156 0.8090 0.4156
vn 0.0000 1.0000 0.0000
vn -0.4156 0.8090 -0.4156
vn -0.5846 0.8113 0.0000
usemtl None
s 1
f 121/1/1 120/2/2 13/3/3 14/4/4
f 114/5/5 113/6/6 6/7/7 7/8/8
f 122/9/9 121/1/1 14/4/4 15/10/10
f 115/11/11 114/5/5 7/8/8 8/12/12
f 1/13/13 122/9/9 15/10/10 16/14/14
f 116/15/15 115/11/11 8/12/12 9/16/16
f 93/17/17 108/18/18 62/19/19 78/20/20
f 117/21/21 116/15/15 9/16/16 10/22/22
f 110/23/23 109/24/24 2/25/25 3/26/26
f 118/27/27 117/21/21 10/22/22 11/28/28
f 111/29/29 110/23/23 3/26/26 4/30/30
f 119/31/31 118/27/27 11/28/28 12/32/32
f 112/33/33 111/29/29 4/30/30 5/34/34
f 120/2/2 119/31/31 12/32/32 13/3/3
f 113/6/6 112/33/33 5/34/34 6/7/7
f 13/3/3 12/32/32 27/35/35 28/36/36
f 6/7/7 5/34/34 20/37/37 21/38/38
f 14/4/4 13/3/3 28/36/36 29/39/39
f 7/8/8 6/7/7 21/38/38 22/40/40
f 15/10/10 14/4/4 29/39/39 30/41/41
f 8/12/12 7/8/8 22/40/40 23/42/42
f 16/14/14 15/10/10 30/41/41 31/43/43
f 9/16/16 8/12/12 23/42/42 24/44/44
f 109/24/24 94/45/45 130/46/46 131/47/47
f 61/48/48 78/20/20 62/49/19 46/50/49
f 10/22/22 9/16/16 24/44/44 25/51/50
f 3/26/26 2/25/25 17/52/51 18/53/52
f 11/28/28 10/22/22 25/51/50 26/54/53
f 4/30/30 3/26/26 18/53/52 19/55/54
f 12/32/32 11/28/28 26/54/53 27/35/35
f 5/34/34 4/30/30 19/55/54 20/37/37
f 25/51/50 24/44/44 39/56/55 40/57/56
f 18/53/52 17/52/51 32/58/57 33/59/58
f 26/54/53 25/51/50 40/57/56 41/60/59
f 19/55/54 18/53/52 33/59/58 34/61/60
f 27/35/35 26/54/53 41/60/59 42/62/61
f 20/37/37 19/55/54 34/61/60 35/63/62
f 28/36/36 27/35/35 42/62/61 43/64/63
f 21/38/38 20/37/37 35/63/62 36/65/64
f 29/39/39 28/36/36 43/64/63 44/66/65
f 22/40/40 21/38/38 36/65/64 37/67/66
f 30/41/41 29/39/39 44/66/65 45/68/67
f 23/42/42 22/40/40 37/67/66 38/69/68
f 31/43/43 30/41/41 45/68/67 46/50/49
f 24/44/44 23/42/42 38/69/68 39/56/55
f 36/65/64 35/63/62 50/70/69 51/71/70
f 44/66/65 43/64/63 58/72/71 59/73/72
f 37/67/66 36/65/64 51/71/70 52/74/73
f 45/68/67 44/66/65 59/73/72 60/75/74
f 38/69/68 37/67/66 52/74/73 53/76/75
f 46/50/49 45/68/67 60/75/74 61/48/48
f 39/56/55 38/69/68 53/76/75 54/77/76
f 17/52/51 2/25/25 124/78/77 123/79/78
f 62/80/19 108/18/18 1/13/13 16/14/14
f 40/57/56 39/56/55 54/77/76 55/81/79
f 33/59/58 32/58/57 47/82/80 48/83/81
f 41/60/59 40/57/56 55/81/79 56/84/82
f 34/61/60 33/59/58 48/83/81 49/85/83
f 42/62/61 41/60/59 56/84/82 57/86/84
f 35/63/62 34/61/60 49/85/83 50/70/69
f 43/64/63 42/62/61 57/86/84 58/72/71
f 55/81/79 54/77/76 71/87/85 72/88/86
f 48/83/81 47/82/80 64/89/87 65/90/88
f 56/84/82 55/81/79 72/88/86 73/91/89
f 49/85/83 48/83/81 65/90/88 66/92/90
f 57/86/84 56/84/82 73/91/89 74/93/91
f 50/70/69 49/85/83 66/92/90 67/94/92
f 58/72/71 57/86/84 74/93/91 75/95/93
f 51/71/70 50/70/69 67/94/92 68/96/94
f 59/73/72 58/72/71 75/95/93 76/97/95
f 52/74/73 51/71/70 68/96/94 69/98/96
f 60/75/74 59/73/72 76/97/95 77/99/97
f 53/76/75 52/74/73 69/98/96 70/100/98
f 61/48/48 60/75/74 77/99/97 78/20/20
f 54/77/76 53/76/75 70/100/98 71/87/85
f 76/97/95 75/95/93 90/101/99 91/102/100
f 69/98/96 68/96/94 83/103/101 84/104/102
f 77/99/97 76/97/95 91/102/100 92/105/103
f 70/100/98 69/98/96 84/104/102 85/106/104
f 78/20/20 77/99/97 92/105/103 93/107/17
f 71/87/85 70/100/98 85/106/104 86/108/105
f 47/82/80 32/58/57 125/109/106 126/110/107
f 31/43/43 46/50/49 62/111/19 16/14/14
f 72/88/86 71/87/85 86/108/105 87/112/108
f 65/90/88 64/89/87 79/113/109 80/114/110
f 73/91/89 72/88/86 87/112/108 88/115/111
f 66/92/90 65/90/88 80/114/110 81/116/112
f 74/93/91 73/91/89 88/115/111 89/117/113
f 67/94/92 66/92/90 81/116/112 82/118/114
f 75/95/93 74/93/91 89/117/113 90/101/99
f 68/96/94 67/94/92 82/118/114 83/103/101
f 80/119/110 79/120/109 94/45/45 95/121/115
f 88/122/111 87/123/108 102/124/116 103/125/117
f 81/126/112 80/119/110 95/121/115 96/127/118
f 89/128/113 88/122/111 103/125/117 104/129/119
f 82/130/114 81/126/112 96/127/118 97/131/120
f 90/132/99 89/128/113 104/129/119 105/133/121
f 83/134/101 82/130/114 97/131/120 98/135/122
f 91/136/100 90/132/99 105/133/121 106/137/123
f 84/138/102 83/134/101 98/135/122 99/139/124
f 92/140/103 91/136/100 106/137/123 107/141/125
f 85/142/104 84/138/102 99/139/124 100/143/126
f 93/17/17 92/140/103 107/141/125 108/18/18
f 86/144/105 85/142/104 100/143/126 101/145/127
f 87/123/108 86/144/105 101/145/127 102/124/116
f 99/139/124 98/135/122 113/6/6 114/5/5
f 107/141/125 106/137/123 121/1/1 122/9/9
f 100/143/126 99/139/124 114/5/5 115/11/11
f 108/18/18 107/141/125 122/9/9 1/13/13
f 101/145/127 100/143/126 115/11/11 116/15/15
f 102/124/116 101/145/127 116/15/15 117/21/21
f 95/121/115 94/45/45 109/24/24 110/23/23
f 103/125/117 102/124/116 117/21/21 118/27/27
f 96/127/118 95/121/115 110/23/23 111/29/29
f 104/129/119 103/125/117 118/27/27 119/31/31
f 97/131/120 96/127/118 111/29/29 112/33/33
f 105/133/121 104/129/119 119/31/31 120/2/2
f 98/135/122 97/131/120 112/33/33 113/6/6
f 106/137/123 105/133/121 120/2/2 121/1/1
f 64/89/87 47/82/80 126/110/107 128/146/128
f 126/110/107 125/109/106 133/147/129 134/148/130
f 128/146/128 126/110/107 134/148/130 136/149/131
f 130/46/46 129/150/132 137/151/133 138/152/134
f 125/109/106 123/79/78 63/153/135 133/147/129
f 94/45/45 79/120/109 129/150/132 130/46/46
f 79/113/109 64/89/87 128/146/128 129/154/132
f 2/25/25 109/24/24 131/47/47 124/78/77
f 32/58/57 17/52/51 123/79/78 125/109/106
f 133/147/129 63/153/135 127/155/136 141/156/137
f 137/157/133 136/149/131 143/158/138 144/159/139
f 139/160/140 138/152/134 145/161/141 146/162/142
f 132/163/143 139/160/140 146/162/142 140/164/144
f 123/79/78 124/78/77 132/163/143 63/153/135
f 124/78/77 131/47/47 139/160/140 132/163/143
f 131/47/47 130/46/46 138/152/134 139/160/140
f 129/154/132 128/146/128 136/149/131 137/157/133
f 140/164/144 146/162/142 154/165/145 147/166/146
f 127/155/136 140/164/144 147/166/146 135/167/147
f 142/168/148 141/156/137 148/169/149 149/170/150
f 143/158/138 142/168/148 149/170/150 151/171/151
f 138/152/134 137/151/133 144/172/139 145/161/141
f 136/149/131 134/148/130 142/168/148 143/158/138
f 134/148/130 133/147/129 141/156/137 142/168/148
f 63/153/135 132/163/143 140/164/144 127/155/136
f 150/173/152 151/171/151 149/170/150 148/169/149
f 153/174/153 150/175/152 147/166/146 154/165/145
f 150/176/152 148/169/149 135/167/147 147/166/146
f 150/177/152 153/174/153 152/178/154 151/171/151
f 146/162/142 145/161/141 153/174/153 154/165/145
f 144/159/139 143/158/138 151/171/151 152/178/154
f 141/156/137 127/155/136 135/167/147 148/169/149
f 145/161/141 144/172/139 152/179/154 153/174/153
